<svg xmlns="http://www.w3.org/2000/svg" width="40" height="57" viewBox="0 0 40 57" fill="none"><g clip-path="url(#a)" fill="#F46936"><path d="M17.827 54.43h-4.13l-.217-.218v-7.826l-.217-.217h-1.958l-.217.217v10l.217.217h6.522l.217-.217v-1.74zm1.956-.218.217.434 1.74 1.74.434.217h4.566l.434-.217 1.74-1.74.217-.434v-7.826l-.218-.217h-1.956l-.217.217v7.173l-.87.87h-2.83l-.87-.87v-7.173l-.217-.217H20l-.217.217zM3.26 46.169l-.434.217-2.609 2.609-.217.434v3.913l.217.435 2.61 2.609.434.217h5.217l.217-.217v-1.74l-.217-.217H4.135l-1.74-1.74v-2.608l1.74-1.74h4.343l.217-.217v-1.738l-.217-.217zm31.09 2.171h5.434l.217-.217v-1.737l-.217-.217h-7.827l-.217.217v10l.217.211h7.827l.217-.211v-1.74l-.217-.217h-5.435l-.217-.217V52.69l.217-.217h4.783l.217-.218v-1.744l-.217-.217H34.35l-.217-.217v-1.522zM0 27.908V15.082l.87-1.74 11.52-11.52 1.74-.87h24.566L40 2.256v13.043l-1.304 1.31H15.434l-6.743 6.743v5.652l6.743 6.743h24.132l.434.434v2.6l-.434.433H11.304l-1.74-.87L.87 29.65z"/></g><defs><clipPath id="a"><path fill="#fff" d="M0 .952h40v55.653H0z"/></clipPath></defs></svg>